<svg width="169" height="147" viewBox="0 0 169 147" fill="none" xmlns="http://www.w3.org/2000/svg">
<path d="M79 127.522C79 138.28 70.2796 147 59.5225 147H23C10.2975 147 0 136.703 0 124L0 32.1654C0 26.8989 2.19134 21.8699 6.04859 18.2841C15.6398 9.368 31.1676 12.6334 36.3552 24.6573L77.4065 119.807C78.4577 122.243 79 124.869 79 127.522Z" fill="white"/>
<path d="M89.7168 127.522C89.7168 138.28 98.4372 147 109.194 147H145.717C158.419 147 168.717 136.703 168.717 124V32.1654C168.717 26.8989 166.525 21.8699 162.668 18.2841C153.077 9.368 137.549 12.6334 132.362 24.6573L91.3103 119.807C90.2591 122.243 89.7168 124.869 89.7168 127.522Z" fill="white"/>
</svg>
